<?xml version="1.0"?>
<svg xmlns="http://www.w3.org/2000/svg" xmlns:xlink="http://www.w3.org/1999/xlink" version="1.1" id="Capa_1" x="0px" y="0px" viewBox="0 0 426.667 426.667" style="enable-background:new 0 0 426.667 426.667;" xml:space="preserve" width="512px" height="512px" class=""><g><g>
	<g>
		<g>
			<path d="M213.333,0C95.68,0,0,95.68,0,213.333s95.68,213.333,213.333,213.333s213.333-95.68,213.333-213.333S330.987,0,213.333,0     z M213.333,384c-94.08,0-170.667-76.587-170.667-170.667S119.253,42.667,213.333,42.667S384,119.253,384,213.333     S307.413,384,213.333,384z" data-original="#000000" class="" data-old_color="#000000" fill="#097B82"/>
			<path d="M213.333,149.333c-35.307,0-64,28.693-64,64s28.693,64,64,64s64-28.693,64-64S248.64,149.333,213.333,149.333z" data-original="#000000" class="" data-old_color="#000000" fill="#097B82"/>
		</g>
	</g>
</g></g> </svg>
